<svg xmlns="http://www.w3.org/2000/svg" viewBox="0 0 100 100">
    <defs>
      <linearGradient id="fbr" x1="0" y1="0" x2="0" y2="1">
        <stop offset="0" stop-color="#F6E2A0"/>
        <stop offset=".42" stop-color="#C7A24B"/>
        <stop offset="1" stop-color="#5E4720"/>
      </linearGradient>
      <filter id="fng" x="-60%" y="-60%" width="220%" height="220%">
        <feGaussianBlur stdDeviation="1.9" result="b"/>
        <feMerge><feMergeNode in="b"/><feMergeNode in="SourceGraphic"/></feMerge>
      </filter>
    </defs>
    <g fill="url(#fbr)" stroke="#2c2110" stroke-width="0.7">
      <rect x="46" y="1.5" width="8" height="15" rx="2.2" transform="rotate(0 50 50)"/><rect x="46" y="1.5" width="8" height="15" rx="2.2" transform="rotate(30 50 50)"/><rect x="46" y="1.5" width="8" height="15" rx="2.2" transform="rotate(60 50 50)"/><rect x="46" y="1.5" width="8" height="15" rx="2.2" transform="rotate(90 50 50)"/><rect x="46" y="1.5" width="8" height="15" rx="2.2" transform="rotate(120 50 50)"/><rect x="46" y="1.5" width="8" height="15" rx="2.2" transform="rotate(150 50 50)"/><rect x="46" y="1.5" width="8" height="15" rx="2.2" transform="rotate(180 50 50)"/><rect x="46" y="1.5" width="8" height="15" rx="2.2" transform="rotate(210 50 50)"/><rect x="46" y="1.5" width="8" height="15" rx="2.2" transform="rotate(240 50 50)"/><rect x="46" y="1.5" width="8" height="15" rx="2.2" transform="rotate(270 50 50)"/><rect x="46" y="1.5" width="8" height="15" rx="2.2" transform="rotate(300 50 50)"/><rect x="46" y="1.5" width="8" height="15" rx="2.2" transform="rotate(330 50 50)"/>
      <circle cx="50" cy="50" r="40.5"/>
    </g>
    <circle cx="50" cy="50" r="33" fill="#08131b"/>
    <circle cx="50" cy="50" r="33" fill="none" stroke="#F6E2A0" stroke-width="0.9" opacity=".45"/>
    <circle cx="50" cy="50" r="29" fill="none" stroke="#2c2110" stroke-width="1"/>
    <g filter="url(#fng)">
      <rect x="32" y="34.5" width="36" height="5.6" rx="2.8" fill="#21F0FF"/>
      <rect x="35" y="47.2" width="30" height="5.6" rx="2.8" fill="#FF2E88"/>
      <rect x="32" y="59.9" width="36" height="5.6" rx="2.8" fill="#F5C451"/>
    </g></svg>